HIERARCHY
ROOT pelvis
{
  OFFSET 0 100 0
  CHANNELS 6 Xposition Yposition Zposition Zrotation Xrotation Yrotation
  JOINT pelvis_right_femur
  {
    OFFSET -10.78128 -3.44521 -0.5502486
    CHANNELS 3 Zrotation Xrotation Yrotation
    JOINT right_femur_tibia
    {
      OFFSET -0.8047443 -44.0398 -0.1307829
      CHANNELS 3 Zrotation Xrotation Yrotation
      JOINT right_tibia_foot
      {
        OFFSET 3.006224 -47.83518 -5
        CHANNELS 3 Zrotation Xrotation Yrotation
        End Site
        {
          OFFSET 0 -5 15
        }
      }
    }
  }
  JOINT pelvis_left_femur
  {
    OFFSET 10.78128 -3.44521 -0.5502486
    CHANNELS 3 Zrotation Xrotation Yrotation
    JOINT left_femur_tibia
    {
      OFFSET 0.8047443 -44.0398 -0.1307829
      CHANNELS 3 Zrotation Xrotation Yrotation
      JOINT left_tibia_foot
      {
        OFFSET -4.370144 -48.10324 -4.275266
        CHANNELS 3 Zrotation Xrotation Yrotation
        End Site
        {
          OFFSET 0 -5 15
        }
      }
    }
  }
  JOINT pelvis_spine1
  {
    OFFSET 0 6.468898 -3.129235
    CHANNELS 3 Zrotation Xrotation Yrotation
    JOINT spine1
    {
      OFFSET 0 23.15396 4.99043
      CHANNELS 3 Zrotation Xrotation Yrotation
      JOINT spine2
      {
        OFFSET 0 20.79997 -5.064912
        CHANNELS 3 Zrotation Xrotation Yrotation
        JOINT neck
        {
          OFFSET 0 14.38658 9.616178
          CHANNELS 3 Zrotation Xrotation Yrotation
          End Site
          {
            OFFSET 0 20 0
          }
        }
      }
      JOINT right_manubrium
      {
        OFFSET -5.722621 16.35077 3.967754
        CHANNELS 3 Zrotation Xrotation Yrotation
        JOINT right_clavicle
        {
          OFFSET -13.16364 1.694482 -4.693211
          CHANNELS 3 Zrotation Xrotation Yrotation
          JOINT right_humerus
          {
            OFFSET -28.5034 -0.3100689 -2.792744
            CHANNELS 3 Zrotation Xrotation Yrotation
            JOINT right_radius
            {
              OFFSET -25.15693 0.02248979 -1.271978
              CHANNELS 3 Zrotation Xrotation Yrotation
              End Site
              {
                OFFSET -15 0 0
              }
            }
          }
        }
      }
      JOINT left_manubrium
      {
        OFFSET 5.722621 16.35077 3.967754
        CHANNELS 3 Zrotation Xrotation Yrotation
        JOINT left_clavicle
        {
          OFFSET 13.16364 1.694482 -4.693211
          CHANNELS 3 Zrotation Xrotation Yrotation
          JOINT left_humerus
          {
            OFFSET 29.39168 -1.063119 -2.237045
            CHANNELS 3 Zrotation Xrotation Yrotation
            JOINT left_radius
            {
              OFFSET 24.59957 -0.9528479 0.9047498
              CHANNELS 3 Zrotation Xrotation Yrotation
              End Site
              {
                OFFSET 15 -0 -0
              }
            }
          }
        }
      }
    }
  }
}
MOTION
Frames: 9
Frame Time: 0.0416666666667
0 103.5113 0 0.6953682 -0.9192097 -0.2095187 5.169907 -17.51707 10.28662 -0 39.17273 -0 -5.717748 -16.63851 -1.533214 -7.682483 9.396259 -24.55062 -0 5.580472 -0 14.00979 -16.19349 31.45007 -3.704494 -3.767239 5.339817 2.325885 9.937107 -6.368283 2.270717 22.51594 6.092778 2.950238 -24.678 10.21508 6.021795 -20.58892 11.70483 83.92229 34.18528 -15.69751 -0 0 17.36249 -4.866075 6.584908 2.981286 6.41856 -18.8533 -1.231525 -95.27435 23.09489 23.04299 0 0 -12.8221 14.73712 18.15359 -3.610736
0.4440508 103.6996 1.45497 0.5924746 -0.5509262 -0.4240003 5.420177 -18.25368 10.19248 -0 37.91145 -0 -5.477164 -16.47263 -1.454943 -7.601367 9.619452 -24.21776 -0 5.781195 -0 13.93084 -16.29717 31.05046 -3.557667 -3.851625 5.389664 2.356217 9.914733 -6.454161 2.277196 22.32651 6.096111 2.907295 -24.80852 10.27333 5.884655 -20.56168 11.63325 84.05704 34.08052 -15.95484 -0 0 17.37231 -4.899468 6.728183 2.896189 6.514777 -18.9716 -1.202321 -95.04747 22.75488 22.88258 0 0 -13.26473 15.03411 17.88944 -3.928532
0.7609243 103.6419 3.429634 0.5246093 -0.8246099 -0.5136801 5.015311 -21.17144 7.836659 -0 33.4955 -0 -6.619012 -12.79333 -1.591728 -7.121738 11.73206 -22.32787 -0 5.985411 -0 12.29125 -17.43057 28.46387 -3.34182 -3.464853 4.599024 2.319924 10.09039 -6.90621 1.979498 22.40153 6.333039 3.122035 -24.35318 9.744818 5.105981 -19.90876 11.52085 85.95943 32.94201 -17.95419 -0 0 15.10728 -7.15882 7.138078 3.942912 6.844826 -20.39887 -2.11691 -93.01129 22.66528 20.21033 0 0 -16.10328 14.32604 17.55784 -3.090621
1.016585 103.4958 5.750687 0.3801602 -0.4744088 -0.5422772 5.018217 -23.00326 6.852329 -0 30.42349 -0 -6.830672 -11.26795 -1.638285 -6.835997 12.63877 -21.26801 -0 6.229033 -0 11.07544 -18.09285 26.78047 -3.123228 -3.295553 4.29465 2.382241 10.03829 -7.223899 1.804702 22.23422 6.502633 3.203471 -24.36175 9.554546 4.803361 -19.58105 11.43086 86.74515 32.7215 -19.04336 -0 0 14.2239 -8.069511 7.491092 4.375673 6.967071 -21.00293 -2.414132 -92.12652 22.88351 19.20878 0 0 -17.80856 13.50352 17.19148 -2.028442
1.215426 103.2498 8.484225 0.2177307 -0.1172442 -0.516742 5.104977 -24.86309 5.869336 -0 27.14671 -0 -6.959974 -9.722692 -1.612494 -6.583224 13.57814 -20.10425 -0 6.949547 -0 10.10927 -18.52845 25.1635 -2.838888 -3.22273 4.066843 2.413512 10.05603 -7.498482 1.694981 22.02836 6.596228 3.232578 -24.34927 9.409881 4.379982 -19.27284 11.31573 87.564 32.21227 -20.06769 -0 0 13.38007 -8.965343 7.844308 4.694865 7.154536 -21.64648 -2.703839 -91.16158 22.52304 18.09883 0 0 -19.41024 13.37517 16.72854 -1.819081
1.369736 102.9512 11.63585 0.01106289 0.4006188 -0.4496938 5.340669 -26.55232 5.148639 -0 24.0203 -0 -6.942602 -8.480441 -1.553917 -6.357806 14.29137 -19.03112 -0 8.102974 -0 9.198241 -18.76638 23.6187 -2.507884 -3.215745 3.948102 2.464527 10.056 -7.752076 1.614104 21.7498 6.665655 3.232704 -24.4586 9.330205 4.025377 -19.02033 11.20441 88.22074 31.83841 -20.96978 -0 0 12.76528 -9.596254 8.205988 4.873101 7.297826 -22.157 -2.88063 -90.41818 22.11195 17.34442 0 0 -20.7945 13.34295 16.22779 -1.690239
1.486023 102.6383 15.23318 -0.2304455 0.9663949 -0.3481064 5.673116 -28.07704 4.537714 -0 21.05577 -0 -6.909787 -7.244575 -1.462808 -6.149302 14.86003 -17.94575 -0 9.905773 -0 8.297133 -18.77548 22.04328 -2.124503 -3.251977 3.892287 2.514259 10.0888 -7.986766 1.550735 21.43539 6.710658 3.219709 -24.62689 9.269205 3.685711 -18.793 11.10427 88.8443 31.4645 -21.82713 -0 0 12.21715 -10.13108 8.58056 4.985383 7.399063 -22.62298 -3.027978 -89.78824 21.57694 16.79651 0 0 -22.01977 13.44415 15.69771 -1.694627
1.571051 102.3687 19.30362 -0.5072839 1.544756 -0.2185639 6.095023 -29.34664 4.027886 -0 18.3981 -0 -6.910868 -5.937025 -1.34686 -5.951803 15.23618 -16.83687 -0 12.54317 -0 7.34215 -18.51111 20.39128 -1.68764 -3.313718 3.890487 2.560644 10.16787 -8.203995 1.49247 21.09711 6.739274 3.20507 -24.85105 9.206529 3.378882 -18.58783 11.02891 89.45247 31.1112 -22.65557 -0 0 11.70468 -10.59955 8.975276 5.061842 7.425007 -23.04372 -3.166925 -89.28968 20.99425 16.50089 0 0 -23.0643 13.56602 15.15221 -1.686935
1.631014 102.2129 23.87486 -0.8122289 2.064057 -0.06941979 6.585071 -30.24894 3.58315 -0 16.18464 -0 -7.009048 -4.457533 -1.211434 -5.75979 15.37227 -15.67459 -0 16.24069 -0 6.295432 -17.90986 18.63226 -1.19754 -3.381914 3.932188 2.594823 10.32127 -8.399844 1.429739 20.75742 6.752527 3.198325 -25.10438 9.114613 3.10627 -18.40173 10.99387 90.0778 30.75252 -23.4665 -0 0 11.17829 -11.0631 9.395731 5.139962 7.34767 -23.43555 -3.334127 -88.91581 20.392 16.46177 0 0 -23.90752 13.6447 14.60638 -1.588136
